<svg width="272" height="117" viewBox="0 0 272 117" fill="none" xmlns="http://www.w3.org/2000/svg">
<path d="M28.3799 117C25.2266 117 22.0295 116.518 18.7886 115.554C15.6352 114.678 12.7009 113.275 9.98553 111.347C7.35776 109.507 5.29934 107.14 3.81027 104.248C2.40879 101.619 1.40148 98.8146 0.788331 95.8348C0.262777 92.8551 0 89.8753 0 86.8955C0 86.4573 0 85.6685 0 84.5292C0.0875923 83.3022 0.218981 81.9876 0.394166 80.5854C0.56935 79.0955 0.788331 77.8685 1.05111 76.9045C1.40148 75.8528 1.79564 75.327 2.23361 75.327C2.67157 75.327 2.93434 75.8966 3.02194 77.036C3.19712 78.1753 3.32851 78.9202 3.4161 79.2708V82.0315C3.4161 82.4697 3.4161 82.9517 3.4161 83.4775C3.4161 83.9157 3.4599 84.3539 3.54749 84.7921C3.98545 88.1225 4.77378 91.5404 5.91249 95.0461C7.13878 98.5517 8.75924 101.751 10.7739 104.643C12.8761 107.622 15.3725 109.989 18.263 111.742C21.2412 113.582 24.7011 114.502 28.6427 114.502C33.0223 114.502 37.2268 113.231 41.256 110.69C45.3729 108.236 49.2269 104.993 52.8182 100.962C56.4971 97.018 59.8256 92.6798 62.8037 87.9472C65.8695 83.2146 68.5848 78.5697 70.9498 74.0124C73.3148 69.4551 75.2857 65.4674 76.8623 62.0494C79.1397 56.8786 81.3733 51.6202 83.5631 46.2742C85.7529 40.9281 87.5924 35.582 89.0815 30.236C87.242 26.1169 84.9646 22.0854 82.2492 18.1416C79.6215 14.1978 76.4244 10.9551 72.6579 8.41348C68.979 5.78427 64.6432 4.46966 59.6504 4.46966C55.3584 4.46966 51.4605 5.65281 47.9568 8.0191C44.5407 10.2978 41.7816 13.2775 39.6793 16.9584C38.891 18.3607 38.2779 19.8506 37.8399 21.4281C37.4895 22.918 37.0954 24.4079 36.6574 25.8978C36.5698 26.4236 36.4384 26.9494 36.2632 27.4753C36.1757 28.0011 36.0005 28.527 35.7377 29.0528C35.6501 29.2281 35.5187 29.491 35.3435 29.8416C35.1683 30.1045 34.9494 30.236 34.6866 30.236C34.2486 30.236 33.942 29.7978 33.7669 28.9213C33.6793 28.0449 33.6355 27.5191 33.6355 27.3438C33.6355 25.591 33.9858 23.882 34.6866 22.2169C35.3873 20.5517 36.1319 18.9303 36.9202 17.3528C38.4968 14.2854 40.5991 11.4371 43.2268 8.80786C45.8546 6.17865 48.8328 4.07528 52.1613 2.49775C55.4898 0.832584 58.9059 0 62.4096 0C67.052 0 71.2564 1.18315 75.0229 3.54944C78.7893 5.91573 82.1179 8.89551 85.0084 12.4888C87.899 16.082 90.3077 19.7629 92.2348 23.5315C92.7603 23.1809 93.4173 22.6989 94.2056 22.0854C95.0815 21.4719 95.7385 21.1652 96.1764 21.1652C96.4392 21.1652 96.702 21.2966 96.9648 21.5595C97.3151 21.7348 97.4903 21.9539 97.4903 22.2169C97.4903 23.4438 97.2713 24.8899 96.8334 26.5551C96.483 28.2202 96.0888 29.6663 95.6509 30.8933C95.8261 31.2438 96.0013 31.6382 96.1764 32.0764C96.3516 32.427 96.483 32.8213 96.5706 33.2596C99.5487 40.4461 102.483 47.6764 105.374 54.9506C108.264 62.1371 111.199 69.3674 114.177 76.6416C115.228 79.0955 116.279 81.5494 117.33 84.0034C118.469 86.4573 119.651 88.8236 120.877 91.1022C121.929 84.7921 123.33 78.5258 125.082 72.3034C126.921 66.0809 128.848 59.9022 130.863 53.7674C131.827 51.0506 133.053 47.5888 134.542 43.382C136.031 39.0876 137.783 34.618 139.797 29.973C141.9 25.3281 144.221 20.9899 146.761 16.9584C149.301 12.8393 152.104 9.50899 155.17 6.96741C158.323 4.3382 161.696 3.0236 165.287 3.0236C166.601 3.0236 168.046 3.28652 169.623 3.81236C171.287 4.25056 172.469 5.03932 173.17 6.17865C173.345 6.35393 173.477 6.57303 173.564 6.83595C173.739 7.09888 173.827 7.3618 173.827 7.62471C173.827 7.88764 173.739 8.0191 173.564 8.0191C172.776 7.66854 172.075 7.09887 171.462 6.31011C170.937 5.43371 169.885 4.9955 168.309 4.9955C166.644 4.9955 164.893 5.52135 163.053 6.57303C161.214 7.62472 159.506 8.8955 157.929 10.3854C156.44 11.8753 155.214 13.2775 154.25 14.5921C152.674 16.7831 150.878 19.9382 148.863 24.0573C146.936 28.1764 144.922 32.8652 142.819 38.1236C140.805 43.2944 138.834 48.7281 136.907 54.4247C135.067 60.1213 133.359 65.7303 131.783 71.2517C130.294 76.6854 129.067 81.7247 128.104 86.3697C127.228 90.927 126.79 94.6955 126.79 97.6753C126.79 98.2011 126.79 98.727 126.79 99.2528C126.878 99.7787 126.965 100.261 127.053 100.699C127.753 102.013 128.936 103.328 130.6 104.643C132.264 106.045 134.06 106.746 135.987 106.746C137.827 106.746 139.272 106.176 140.323 105.037C141.374 103.985 142.294 102.89 143.082 101.751C143.87 100.699 144.746 100.173 145.71 100.173C146.936 100.173 147.549 100.787 147.549 102.013C147.549 103.854 146.673 105.344 144.922 106.483C143.17 107.622 141.155 108.455 138.878 108.981C136.688 109.507 134.936 109.77 133.622 109.77C131.958 109.77 129.987 109.463 127.71 108.849C125.52 108.324 123.067 106.483 120.352 103.328C117.549 99.9977 115.14 96.0101 113.126 91.3652C111.111 86.7202 109.315 82.382 107.739 78.3506C105.198 71.8652 102.702 65.3798 100.249 58.8944C97.7969 52.409 95.3005 45.9236 92.7603 39.4382C89.2566 48.7281 85.4464 57.9303 81.3295 67.0449C79.2273 71.7775 76.7309 76.6416 73.8404 81.6371C70.9498 86.5449 67.7089 91.2337 64.1176 95.7034C60.5263 100.173 56.5409 104.117 52.1613 107.535C47.7816 111.04 43.0079 113.713 37.8399 115.554C36.3508 116.08 34.7742 116.43 33.1099 116.606C31.5333 116.869 29.9566 117 28.3799 117Z" fill="white"/>
<path d="M173.149 41.1472C172.448 41.1472 171.353 40.8843 169.864 40.3584C168.462 39.7449 167.762 39 167.762 38.1236C167.762 38.036 167.762 37.9921 167.762 37.9921C167.849 37.9045 167.893 37.8169 167.893 37.7292C168.331 36.8528 169.295 36.327 170.784 36.1517C172.36 35.9764 173.543 35.7135 174.331 35.3629C176.083 34.6618 177.791 34.0921 179.455 33.6539C181.119 33.2157 182.696 32.427 184.185 31.2876C184.536 31.4629 184.711 31.6382 184.711 31.8135C184.711 32.164 184.317 32.6461 183.528 33.2596C182.828 33.873 182.346 34.3989 182.083 34.8371C181.733 35.3629 180.944 36.1517 179.718 37.2034C178.579 38.1674 177.353 39.0876 176.039 39.964C174.725 40.7528 173.762 41.1472 173.149 41.1472ZM150.944 98.0697C149.542 98.0697 148.579 97.7191 148.053 97.018C147.528 96.3169 147.265 95.309 147.265 93.9944C147.265 91.1022 147.834 87.5966 148.973 83.4775C150.199 79.3584 151.557 75.1955 153.046 70.9888C154.535 66.6944 155.718 62.882 156.594 59.5517C156.944 58.3247 157.776 57.4921 159.09 57.0539C160.491 56.5281 161.674 55.9146 162.637 55.2135C164.039 54.2494 165.528 53.4607 167.105 52.8472C168.681 52.1461 170.346 51.7955 172.097 51.7955C172.535 51.7955 172.798 51.8831 172.886 52.0584C173.061 52.2337 173.149 52.3652 173.149 52.4528C173.149 52.9786 172.842 53.2416 172.229 53.2416C171.003 53.2416 169.732 53.9865 168.419 55.4764C167.105 56.8786 165.791 58.7191 164.477 60.9977C163.163 63.2764 161.981 65.6427 160.929 68.0966C159.878 70.5506 158.959 72.8292 158.17 74.9326C157.382 76.9483 156.856 78.4382 156.594 79.4022C156.156 80.8045 155.718 82.4697 155.28 84.3977C154.842 86.2382 154.623 87.9472 154.623 89.5247C154.623 90.1382 154.71 90.8831 154.886 91.7595C155.061 92.5483 155.586 92.9427 156.462 92.9427C157.075 92.9427 157.732 92.7236 158.433 92.2854C160.36 91.1461 162.243 89.6124 164.083 87.6843C166.01 85.6685 167.762 83.5213 169.338 81.2427C171.003 78.8764 172.316 76.7292 173.28 74.8011C173.455 74.8888 173.543 75.064 173.543 75.327C173.543 75.8528 173.236 76.6416 172.623 77.6933C172.01 78.6573 171.309 79.709 170.521 80.8483C169.732 81.9876 168.988 82.9955 168.287 83.8719C167.674 84.7483 167.367 85.2742 167.367 85.4494C167.28 86.1506 167.149 86.6764 166.973 87.027C166.798 87.2899 166.535 87.7719 166.185 88.473C165.134 89.5247 163.732 90.8393 161.981 92.4168C160.229 93.9067 158.389 95.2213 156.462 96.3607C154.535 97.5 152.696 98.0697 150.944 98.0697Z" fill="white"/>
<path d="M171.357 98.727C169.693 98.727 167.854 98.4202 165.839 97.8067C163.824 97.1933 162.335 96.0539 161.372 94.3888V94.1258C161.372 93.6876 161.941 93.0303 163.08 92.1539C164.131 91.1899 165.27 90.2697 166.496 89.3933C167.722 88.4292 168.511 87.7281 168.861 87.2899L169.781 87.027L170.043 87.5528C169.43 88.0786 169.124 88.6483 169.124 89.2618C169.124 90.5764 169.606 91.6719 170.569 92.5483C171.62 93.4247 172.803 94.082 174.117 94.5202C175.518 94.9584 176.744 95.1775 177.795 95.1775C179.022 95.1775 180.555 94.827 182.394 94.1258C184.321 93.4247 186.029 92.4607 187.518 91.2337C189.007 90.0067 189.752 88.6483 189.752 87.1584C189.752 84.8798 189.051 82.9079 187.65 81.2427C186.248 79.5775 184.628 78 182.788 76.5101C180.949 75.0202 179.328 73.4427 177.927 71.7775C176.525 70.1124 175.825 68.1843 175.825 65.9933C175.825 63.4517 176.569 61.173 178.058 59.1573C179.635 57.0539 181.606 55.3011 183.971 53.8989C186.423 52.409 188.963 51.3135 191.591 50.6124C194.219 49.8236 196.628 49.4292 198.818 49.4292C199.168 49.4292 199.956 49.5169 201.183 49.6921C202.409 49.7798 203.548 49.9989 204.599 50.3494C205.737 50.6124 206.307 51.0067 206.307 51.5326C206.307 51.7079 206.263 51.7955 206.175 51.7955H205.913L204.861 51.5326C205.124 52.1461 205.256 52.891 205.256 53.7674C205.256 54.5562 205.08 55.564 204.73 56.791C204.38 58.018 203.986 58.982 203.548 59.6831C203.46 59.8584 203.022 60.4281 202.234 61.3921C201.445 62.3562 200.657 63.2764 199.869 64.1528C199.08 65.0292 198.599 65.4674 198.423 65.4674L198.292 65.2045C198.467 64.7663 199.037 64.0213 200 62.9697C200.964 61.8303 201.445 60.3843 201.445 58.6315C201.445 56.791 200.613 55.3011 198.949 54.1618C197.285 52.9348 195.577 52.3213 193.825 52.3213C192.161 52.3213 190.409 52.8472 188.569 53.8989C186.817 54.9506 185.328 56.309 184.102 57.9742C182.963 59.6393 182.394 61.3483 182.394 63.1011C182.394 64.6786 183.139 66.3438 184.628 68.0966C186.204 69.7618 187.956 71.4708 189.883 73.2236C191.898 74.8888 193.65 76.5539 195.139 78.2191C196.715 79.8843 197.504 81.4618 197.504 82.9517V83.3461C197.504 85.5371 196.54 87.5966 194.613 89.5247C192.686 91.3652 190.277 92.9865 187.387 94.3888C184.496 95.791 181.562 96.8865 178.584 97.6753C175.693 98.3764 173.284 98.727 171.357 98.727Z" fill="white"/>
<path d="M227.937 41.1472C227.236 41.1472 226.141 40.8843 224.652 40.3584C223.25 39.7449 222.55 39 222.55 38.1236C222.55 38.036 222.55 37.9921 222.55 37.9921C222.637 37.9045 222.681 37.8169 222.681 37.7292C223.119 36.8528 224.083 36.327 225.572 36.1517C227.148 35.9764 228.331 35.7135 229.119 35.3629C230.871 34.6618 232.579 34.0921 234.243 33.6539C235.907 33.2157 237.484 32.427 238.973 31.2876C239.324 31.4629 239.499 31.6382 239.499 31.8135C239.499 32.164 239.105 32.6461 238.316 33.2596C237.616 33.873 237.134 34.3989 236.871 34.8371C236.521 35.3629 235.732 36.1517 234.506 37.2034C233.367 38.1674 232.141 39.0876 230.827 39.964C229.513 40.7528 228.55 41.1472 227.937 41.1472ZM205.732 98.0697C204.33 98.0697 203.367 97.7191 202.841 97.018C202.316 96.3169 202.053 95.309 202.053 93.9944C202.053 91.1022 202.622 87.5966 203.761 83.4775C204.987 79.3584 206.345 75.1955 207.834 70.9888C209.323 66.6944 210.506 62.882 211.382 59.5517C211.732 58.3247 212.564 57.4921 213.878 57.0539C215.279 56.5281 216.462 55.9146 217.425 55.2135C218.827 54.2494 220.316 53.4607 221.893 52.8472C223.469 52.1461 225.134 51.7955 226.885 51.7955C227.323 51.7955 227.586 51.8831 227.674 52.0584C227.849 52.2337 227.937 52.3652 227.937 52.4528C227.937 52.9786 227.63 53.2416 227.017 53.2416C225.791 53.2416 224.52 53.9865 223.207 55.4764C221.893 56.8786 220.579 58.7191 219.265 60.9977C217.951 63.2764 216.769 65.6427 215.717 68.0966C214.666 70.5506 213.747 72.8292 212.958 74.9326C212.17 76.9483 211.644 78.4382 211.382 79.4022C210.944 80.8045 210.506 82.4697 210.068 84.3977C209.63 86.2382 209.411 87.9472 209.411 89.5247C209.411 90.1382 209.498 90.8831 209.674 91.7595C209.849 92.5483 210.374 92.9427 211.25 92.9427C211.863 92.9427 212.52 92.7236 213.221 92.2854C215.148 91.1461 217.031 89.6124 218.871 87.6843C220.798 85.6685 222.55 83.5213 224.126 81.2427C225.791 78.8764 227.104 76.7292 228.068 74.8011C228.243 74.8888 228.331 75.064 228.331 75.327C228.331 75.8528 228.024 76.6416 227.411 77.6933C226.798 78.6573 226.097 79.709 225.309 80.8483C224.52 81.9876 223.776 82.9955 223.075 83.8719C222.462 84.7483 222.155 85.2742 222.155 85.4494C222.068 86.1506 221.937 86.6764 221.761 87.027C221.586 87.2899 221.323 87.7719 220.973 88.473C219.922 89.5247 218.52 90.8393 216.769 92.4168C215.017 93.9067 213.177 95.2213 211.25 96.3607C209.323 97.5 207.484 98.0697 205.732 98.0697Z" fill="white"/>
<path d="M225.751 97.9382C224.35 97.9382 223.43 97.4124 222.992 96.3607C222.642 95.2213 222.467 94.082 222.467 92.9427C222.467 88.8236 223.255 84.3977 224.832 79.6652C226.408 74.9326 228.467 70.4191 231.007 66.1247C233.547 61.7427 236.306 58.1494 239.284 55.3449C242.438 52.4528 246.16 51.0067 250.452 51.0067C252.204 51.0067 253.912 51.2258 255.576 51.664C257.328 52.0146 259.036 52.5404 260.701 53.2416C262.19 52.1899 263.81 51.2697 265.562 50.4809C267.314 49.6921 269.109 49.2977 270.949 49.2977C271.387 49.2977 271.737 49.5607 272 50.0865V50.4809C272 50.7438 271.869 50.8753 271.606 50.8753C271.431 50.7876 271.255 50.7438 271.08 50.7438C269.679 50.7438 268.146 51.8393 266.482 54.0303C264.817 56.1337 263.153 58.8506 261.489 62.1809C259.825 65.5112 258.292 69.0169 256.89 72.6978C255.576 76.3787 254.482 79.7528 253.606 82.8202C252.817 85.8876 252.423 88.2101 252.423 89.7876C252.423 90.4011 252.511 91.1022 252.686 91.891C252.949 92.6798 253.474 93.0741 254.263 93.0741C254.7 93.0741 255.051 92.9865 255.314 92.8112C255.664 92.636 256.014 92.4607 256.365 92.2854C258.292 91.1461 260.175 89.6124 262.014 87.6843C263.941 85.6685 265.693 83.5213 267.27 81.2427C268.934 78.8764 270.292 76.7292 271.343 74.8011C271.431 74.8888 271.474 75.064 271.474 75.327C271.474 75.8528 271.168 76.6416 270.555 77.6933C269.942 78.6573 269.241 79.709 268.452 80.8483C267.664 81.9876 266.92 82.9955 266.219 83.8719C265.606 84.7483 265.299 85.2742 265.299 85.4494C265.212 86.0629 265.08 86.5888 264.905 87.027C264.73 87.3775 264.467 87.8595 264.117 88.473C262.978 89.6124 261.533 90.927 259.781 92.4168C258.029 93.9067 256.19 95.2213 254.263 96.3607C252.423 97.4124 250.627 97.9382 248.876 97.9382C246.16 97.9382 244.803 96.4921 244.803 93.6C244.803 91.8472 245.153 89.8315 245.854 87.5528C246.642 85.1865 247.518 82.864 248.481 80.5854C249.533 78.2191 250.452 76.2472 251.241 74.6697C251.241 74.582 251.241 74.4506 251.241 74.2753C251.241 74.1 251.197 74.0124 251.109 74.0124C251.022 74.0124 250.89 74.1 250.715 74.2753C249.664 75.6775 248.131 77.6933 246.116 80.3225C244.102 82.9517 241.868 85.6247 239.416 88.3416C237.051 90.9708 234.642 93.2494 232.189 95.1775C229.737 97.018 227.591 97.9382 225.751 97.9382ZM231.532 92.2854C232.496 92.2854 233.678 91.6719 235.08 90.4449C236.569 89.1303 238.102 87.5966 239.678 85.8438C241.343 84.0034 242.788 82.2506 244.014 80.5854C245.328 78.9202 246.248 77.6933 246.773 76.9045C247.824 75.327 249.007 73.3551 250.321 70.9888C251.722 68.6225 252.905 66.1685 253.868 63.627C254.919 61.0854 255.445 58.9382 255.445 57.1854C255.445 54.4685 254.087 53.1101 251.372 53.1101C249.795 53.1101 248.131 53.8112 246.379 55.2135C244.627 56.6157 243.226 57.8865 242.175 59.0258C241.036 60.4281 239.722 62.4438 238.233 65.073C236.832 67.7022 235.518 70.5506 234.291 73.618C233.065 76.6854 232.014 79.6213 231.138 82.4258C230.35 85.2303 229.956 87.5528 229.956 89.3933C229.956 89.9191 230.043 90.5326 230.218 91.2337C230.394 91.9348 230.832 92.2854 231.532 92.2854Z" fill="white"/>
</svg>
